<mxfile host="Electron" agent="Mozilla/5.0 (Windows NT 10.0; Win64; x64) AppleWebKit/537.36 (KHTML, like Gecko) draw.io/27.0.5 Chrome/134.0.6998.205 Electron/35.3.0 Safari/537.36" version="27.0.5">
  <diagram name="Subsystems" id="f_oss4CEIwRat5mZJJqQ">
    <mxGraphModel dx="1515" dy="912" grid="1" gridSize="10" guides="1" tooltips="1" connect="1" arrows="1" fold="1" page="1" pageScale="1" pageWidth="850" pageHeight="1100" math="0" shadow="0">
      <root>
        <mxCell id="0" />
        <mxCell id="1" parent="0" />
        <mxCell id="uWBmTcXNtp5bhC1Tqfgo-1" value="Stacquer Studio" style="rounded=0;whiteSpace=wrap;html=1;fontSize=14;fillColor=#dae8fc;strokeColor=#6c8ebf;gradientColor=#7ea6e0;" vertex="1" parent="1">
          <mxGeometry x="480" y="60" width="200" height="80" as="geometry" />
        </mxCell>
        <mxCell id="uWBmTcXNtp5bhC1Tqfgo-2" value="Stacquer Studio&amp;nbsp;&lt;div&gt;Web App&lt;/div&gt;" style="rounded=0;whiteSpace=wrap;html=1;fontSize=14;fillColor=#dae8fc;strokeColor=#6c8ebf;gradientColor=#7ea6e0;" vertex="1" parent="1">
          <mxGeometry x="480" y="220" width="200" height="80" as="geometry" />
        </mxCell>
        <mxCell id="uWBmTcXNtp5bhC1Tqfgo-4" value="Stacquer API Database" style="rounded=0;whiteSpace=wrap;html=1;fontSize=14;fillColor=#f5f5f5;strokeColor=#666666;gradientColor=#b3b3b3;" vertex="1" parent="1">
          <mxGeometry x="180" y="820" width="200" height="60" as="geometry" />
        </mxCell>
        <mxCell id="uWBmTcXNtp5bhC1Tqfgo-5" value="Stacquer API Catalog Service" style="rounded=0;whiteSpace=wrap;html=1;fontSize=14;fillColor=#fff2cc;strokeColor=#d6b656;gradientColor=#ffd966;" vertex="1" parent="1">
          <mxGeometry x="360" y="560" width="120" height="60" as="geometry" />
        </mxCell>
        <mxCell id="uWBmTcXNtp5bhC1Tqfgo-6" value="Stacquer API Editing Service" style="rounded=0;whiteSpace=wrap;html=1;fontSize=14;fillColor=#ffcd28;strokeColor=#d79b00;gradientColor=#ffa500;" vertex="1" parent="1">
          <mxGeometry x="80" y="560" width="120" height="60" as="geometry" />
        </mxCell>
        <mxCell id="uWBmTcXNtp5bhC1Tqfgo-11" value="" style="endArrow=classic;dashed=1;html=1;rounded=0;exitX=0.5;exitY=1;exitDx=0;exitDy=0;entryX=0.5;entryY=0;entryDx=0;entryDy=0;startArrow=none;startFill=0;endFill=1;fontSize=14;" edge="1" parent="1" source="uWBmTcXNtp5bhC1Tqfgo-1" target="uWBmTcXNtp5bhC1Tqfgo-2">
          <mxGeometry width="50" height="50" relative="1" as="geometry">
            <mxPoint x="880" y="390" as="sourcePoint" />
            <mxPoint x="930" y="340" as="targetPoint" />
          </mxGeometry>
        </mxCell>
        <mxCell id="uWBmTcXNtp5bhC1Tqfgo-12" value="" style="endArrow=classic;dashed=1;html=1;rounded=0;exitX=0;exitY=0.75;exitDx=0;exitDy=0;entryX=0.5;entryY=0;entryDx=0;entryDy=0;startArrow=none;startFill=0;endFill=1;fontSize=14;" edge="1" parent="1" source="uWBmTcXNtp5bhC1Tqfgo-2" target="uWBmTcXNtp5bhC1Tqfgo-5">
          <mxGeometry width="50" height="50" relative="1" as="geometry">
            <mxPoint x="190" y="270" as="sourcePoint" />
            <mxPoint x="190" y="370" as="targetPoint" />
            <Array as="points">
              <mxPoint x="420" y="280" />
            </Array>
          </mxGeometry>
        </mxCell>
        <mxCell id="uWBmTcXNtp5bhC1Tqfgo-13" value="" style="endArrow=classic;dashed=1;html=1;rounded=0;exitX=0;exitY=0.25;exitDx=0;exitDy=0;entryX=0.5;entryY=0;entryDx=0;entryDy=0;startArrow=none;startFill=0;endFill=1;fontSize=14;" edge="1" parent="1" source="uWBmTcXNtp5bhC1Tqfgo-2" target="uWBmTcXNtp5bhC1Tqfgo-6">
          <mxGeometry width="50" height="50" relative="1" as="geometry">
            <mxPoint x="250" y="360" as="sourcePoint" />
            <mxPoint x="370" y="360" as="targetPoint" />
            <Array as="points">
              <mxPoint x="140" y="240" />
            </Array>
          </mxGeometry>
        </mxCell>
        <mxCell id="uWBmTcXNtp5bhC1Tqfgo-14" value="" style="endArrow=classic;dashed=1;html=1;rounded=0;exitX=0.5;exitY=1;exitDx=0;exitDy=0;entryX=0;entryY=0.5;entryDx=0;entryDy=0;startArrow=none;startFill=0;endFill=1;fontSize=14;" edge="1" parent="1" source="uWBmTcXNtp5bhC1Tqfgo-20" target="uWBmTcXNtp5bhC1Tqfgo-60">
          <mxGeometry width="50" height="50" relative="1" as="geometry">
            <mxPoint x="700" y="660" as="sourcePoint" />
            <mxPoint x="370" y="640" as="targetPoint" />
            <Array as="points">
              <mxPoint x="740" y="850" />
            </Array>
          </mxGeometry>
        </mxCell>
        <mxCell id="uWBmTcXNtp5bhC1Tqfgo-15" value="" style="endArrow=classic;dashed=1;html=1;rounded=0;exitX=0.5;exitY=1;exitDx=0;exitDy=0;entryX=0;entryY=0.5;entryDx=0;entryDy=0;startArrow=none;startFill=0;endFill=1;fontSize=14;" edge="1" parent="1" source="uWBmTcXNtp5bhC1Tqfgo-6" target="uWBmTcXNtp5bhC1Tqfgo-4">
          <mxGeometry width="50" height="50" relative="1" as="geometry">
            <mxPoint x="250" y="400" as="sourcePoint" />
            <mxPoint x="370" y="400" as="targetPoint" />
            <Array as="points">
              <mxPoint x="140" y="850" />
            </Array>
          </mxGeometry>
        </mxCell>
        <mxCell id="uWBmTcXNtp5bhC1Tqfgo-16" value="Stacquer&amp;nbsp;&lt;div&gt;Code Service&lt;/div&gt;" style="rounded=0;whiteSpace=wrap;html=1;fontSize=14;fillColor=#fff2cc;strokeColor=#d6b656;gradientColor=#ffd966;" vertex="1" parent="1">
          <mxGeometry x="520" y="400" width="120" height="60" as="geometry" />
        </mxCell>
        <mxCell id="uWBmTcXNtp5bhC1Tqfgo-17" value="" style="endArrow=classic;dashed=1;html=1;rounded=0;exitX=0.5;exitY=1;exitDx=0;exitDy=0;entryX=0.5;entryY=0;entryDx=0;entryDy=0;startArrow=none;startFill=0;endFill=1;fontSize=14;" edge="1" parent="1" source="uWBmTcXNtp5bhC1Tqfgo-2" target="uWBmTcXNtp5bhC1Tqfgo-16">
          <mxGeometry width="50" height="50" relative="1" as="geometry">
            <mxPoint x="190" y="230" as="sourcePoint" />
            <mxPoint x="190" y="330" as="targetPoint" />
            <Array as="points" />
          </mxGeometry>
        </mxCell>
        <mxCell id="uWBmTcXNtp5bhC1Tqfgo-19" value="" style="endArrow=classic;dashed=1;html=1;rounded=0;exitX=1;exitY=0.5;exitDx=0;exitDy=0;entryX=0.25;entryY=0;entryDx=0;entryDy=0;startArrow=none;startFill=0;endFill=1;fontSize=14;" edge="1" parent="1" source="uWBmTcXNtp5bhC1Tqfgo-6" target="uWBmTcXNtp5bhC1Tqfgo-30">
          <mxGeometry width="50" height="50" relative="1" as="geometry">
            <mxPoint x="250" y="360" as="sourcePoint" />
            <mxPoint x="370" y="360" as="targetPoint" />
            <Array as="points">
              <mxPoint x="240" y="590" />
            </Array>
          </mxGeometry>
        </mxCell>
        <mxCell id="uWBmTcXNtp5bhC1Tqfgo-21" value="" style="endArrow=classic;dashed=1;html=1;rounded=0;exitX=1;exitY=0.5;exitDx=0;exitDy=0;entryX=0;entryY=0.5;entryDx=0;entryDy=0;startArrow=none;startFill=0;endFill=1;fontSize=14;" edge="1" parent="1" source="uWBmTcXNtp5bhC1Tqfgo-5" target="uWBmTcXNtp5bhC1Tqfgo-20">
          <mxGeometry width="50" height="50" relative="1" as="geometry">
            <mxPoint x="480" y="510" as="sourcePoint" />
            <mxPoint x="660" y="640" as="targetPoint" />
            <Array as="points" />
          </mxGeometry>
        </mxCell>
        <mxCell id="uWBmTcXNtp5bhC1Tqfgo-20" value="Stacquer Schema Catalog Service" style="rounded=0;whiteSpace=wrap;html=1;fontSize=14;fillColor=#fff2cc;strokeColor=#d6b656;gradientColor=#ffd966;" vertex="1" parent="1">
          <mxGeometry x="680" y="560" width="120" height="60" as="geometry" />
        </mxCell>
        <mxCell id="uWBmTcXNtp5bhC1Tqfgo-22" value="" style="endArrow=classic;dashed=1;html=1;rounded=0;exitX=1;exitY=0.75;exitDx=0;exitDy=0;startArrow=none;startFill=0;endFill=1;fontSize=14;jumpStyle=none;jumpSize=16;entryX=0.5;entryY=0;entryDx=0;entryDy=0;" edge="1" parent="1" source="uWBmTcXNtp5bhC1Tqfgo-2" target="uWBmTcXNtp5bhC1Tqfgo-20">
          <mxGeometry width="50" height="50" relative="1" as="geometry">
            <mxPoint x="250" y="360" as="sourcePoint" />
            <mxPoint x="630" y="320" as="targetPoint" />
            <Array as="points">
              <mxPoint x="740" y="280" />
            </Array>
          </mxGeometry>
        </mxCell>
        <mxCell id="uWBmTcXNtp5bhC1Tqfgo-23" value="" style="endArrow=classic;dashed=1;html=1;rounded=0;exitX=0.75;exitY=1;exitDx=0;exitDy=0;startArrow=none;startFill=0;endFill=1;fontSize=14;entryX=0.25;entryY=0;entryDx=0;entryDy=0;" edge="1" parent="1" source="uWBmTcXNtp5bhC1Tqfgo-16" target="uWBmTcXNtp5bhC1Tqfgo-20">
          <mxGeometry width="50" height="50" relative="1" as="geometry">
            <mxPoint x="430" y="230" as="sourcePoint" />
            <mxPoint x="690" y="560" as="targetPoint" />
            <Array as="points" />
          </mxGeometry>
        </mxCell>
        <mxCell id="uWBmTcXNtp5bhC1Tqfgo-18" value="" style="endArrow=classic;dashed=1;html=1;rounded=0;exitX=0.25;exitY=1;exitDx=0;exitDy=0;entryX=0.75;entryY=0;entryDx=0;entryDy=0;startArrow=none;startFill=0;endFill=1;fontSize=14;jumpStyle=arc;jumpSize=16;" edge="1" parent="1" source="uWBmTcXNtp5bhC1Tqfgo-16" target="uWBmTcXNtp5bhC1Tqfgo-5">
          <mxGeometry width="50" height="50" relative="1" as="geometry">
            <mxPoint x="250" y="200" as="sourcePoint" />
            <mxPoint x="370" y="200" as="targetPoint" />
            <Array as="points" />
          </mxGeometry>
        </mxCell>
        <mxCell id="uWBmTcXNtp5bhC1Tqfgo-24" value="Stacquer Schema Editing Service" style="rounded=0;whiteSpace=wrap;html=1;fontSize=14;fillColor=#ffcd28;strokeColor=#d79b00;gradientColor=#ffa500;" vertex="1" parent="1">
          <mxGeometry x="960" y="560" width="120" height="60" as="geometry" />
        </mxCell>
        <mxCell id="uWBmTcXNtp5bhC1Tqfgo-25" value="" style="endArrow=classic;dashed=1;html=1;rounded=0;exitX=0;exitY=0.5;exitDx=0;exitDy=0;entryX=0.75;entryY=0;entryDx=0;entryDy=0;startArrow=none;startFill=0;endFill=1;fontSize=14;" edge="1" parent="1" source="uWBmTcXNtp5bhC1Tqfgo-24" target="uWBmTcXNtp5bhC1Tqfgo-32">
          <mxGeometry width="50" height="50" relative="1" as="geometry">
            <mxPoint x="490" y="480" as="sourcePoint" />
            <mxPoint x="610" y="480" as="targetPoint" />
            <Array as="points">
              <mxPoint x="920" y="590" />
            </Array>
          </mxGeometry>
        </mxCell>
        <mxCell id="uWBmTcXNtp5bhC1Tqfgo-26" value="" style="endArrow=classic;dashed=1;html=1;rounded=0;exitX=1;exitY=0.25;exitDx=0;exitDy=0;entryX=0.5;entryY=0;entryDx=0;entryDy=0;startArrow=none;startFill=0;endFill=1;fontSize=14;" edge="1" parent="1" source="uWBmTcXNtp5bhC1Tqfgo-2" target="uWBmTcXNtp5bhC1Tqfgo-24">
          <mxGeometry width="50" height="50" relative="1" as="geometry">
            <mxPoint x="610" y="295" as="sourcePoint" />
            <mxPoint x="430" y="450" as="targetPoint" />
            <Array as="points">
              <mxPoint x="1020" y="240" />
            </Array>
          </mxGeometry>
        </mxCell>
        <mxCell id="uWBmTcXNtp5bhC1Tqfgo-28" value="" style="endArrow=classic;dashed=1;html=1;rounded=0;exitX=0.5;exitY=1;exitDx=0;exitDy=0;entryX=1;entryY=0.5;entryDx=0;entryDy=0;startArrow=none;startFill=0;endFill=1;fontSize=14;" edge="1" parent="1" source="uWBmTcXNtp5bhC1Tqfgo-5" target="uWBmTcXNtp5bhC1Tqfgo-4">
          <mxGeometry width="50" height="50" relative="1" as="geometry">
            <mxPoint x="420" y="660" as="sourcePoint" />
            <mxPoint x="670" y="810" as="targetPoint" />
            <Array as="points">
              <mxPoint x="420" y="850" />
            </Array>
          </mxGeometry>
        </mxCell>
        <mxCell id="uWBmTcXNtp5bhC1Tqfgo-30" value="Staquer API Event Queue" style="rounded=1;whiteSpace=wrap;html=1;fillColor=#e6d0de;gradientColor=#d5739d;strokeColor=#996185;" vertex="1" parent="1">
          <mxGeometry x="200" y="700" width="160" height="40" as="geometry" />
        </mxCell>
        <mxCell id="uWBmTcXNtp5bhC1Tqfgo-31" value="" style="endArrow=classic;dashed=1;html=1;rounded=0;exitX=0;exitY=0.5;exitDx=0;exitDy=0;entryX=0.75;entryY=0;entryDx=0;entryDy=0;startArrow=none;startFill=0;endFill=1;fontSize=14;" edge="1" parent="1" source="uWBmTcXNtp5bhC1Tqfgo-5" target="uWBmTcXNtp5bhC1Tqfgo-30">
          <mxGeometry width="50" height="50" relative="1" as="geometry">
            <mxPoint x="210" y="480" as="sourcePoint" />
            <mxPoint x="250" y="690" as="targetPoint" />
            <Array as="points">
              <mxPoint x="320" y="590" />
            </Array>
          </mxGeometry>
        </mxCell>
        <mxCell id="uWBmTcXNtp5bhC1Tqfgo-32" value="Staquer API Event Queue" style="rounded=1;whiteSpace=wrap;html=1;fillColor=#e6d0de;gradientColor=#d5739d;strokeColor=#996185;" vertex="1" parent="1">
          <mxGeometry x="800" y="700" width="160" height="40" as="geometry" />
        </mxCell>
        <mxCell id="uWBmTcXNtp5bhC1Tqfgo-33" value="" style="endArrow=classic;dashed=1;html=1;rounded=0;exitX=1;exitY=0.5;exitDx=0;exitDy=0;entryX=0.25;entryY=0;entryDx=0;entryDy=0;startArrow=none;startFill=0;endFill=1;fontSize=14;" edge="1" parent="1" source="uWBmTcXNtp5bhC1Tqfgo-20" target="uWBmTcXNtp5bhC1Tqfgo-32">
          <mxGeometry width="50" height="50" relative="1" as="geometry">
            <mxPoint x="490" y="600" as="sourcePoint" />
            <mxPoint x="610" y="600" as="targetPoint" />
            <Array as="points">
              <mxPoint x="840" y="590" />
            </Array>
          </mxGeometry>
        </mxCell>
        <mxCell id="uWBmTcXNtp5bhC1Tqfgo-34" value="" style="endArrow=async;html=1;rounded=0;endFill=1;strokeColor=#009900;" edge="1" parent="1">
          <mxGeometry width="50" height="50" relative="1" as="geometry">
            <mxPoint x="250" y="640" as="sourcePoint" />
            <mxPoint x="250" y="680" as="targetPoint" />
          </mxGeometry>
        </mxCell>
        <mxCell id="uWBmTcXNtp5bhC1Tqfgo-35" value="" style="endArrow=async;html=1;rounded=0;endFill=1;strokeColor=#009900;" edge="1" parent="1">
          <mxGeometry width="50" height="50" relative="1" as="geometry">
            <mxPoint x="310" y="680" as="sourcePoint" />
            <mxPoint x="310" y="640" as="targetPoint" />
          </mxGeometry>
        </mxCell>
        <mxCell id="uWBmTcXNtp5bhC1Tqfgo-36" value="" style="endArrow=async;html=1;rounded=0;endFill=1;strokeColor=#009900;" edge="1" parent="1">
          <mxGeometry width="50" height="50" relative="1" as="geometry">
            <mxPoint x="930" y="640" as="sourcePoint" />
            <mxPoint x="930" y="680" as="targetPoint" />
          </mxGeometry>
        </mxCell>
        <mxCell id="uWBmTcXNtp5bhC1Tqfgo-37" value="" style="endArrow=async;html=1;rounded=0;endFill=1;strokeColor=#009900;" edge="1" parent="1">
          <mxGeometry width="50" height="50" relative="1" as="geometry">
            <mxPoint x="830" y="680" as="sourcePoint" />
            <mxPoint x="830" y="640" as="targetPoint" />
          </mxGeometry>
        </mxCell>
        <mxCell id="uWBmTcXNtp5bhC1Tqfgo-38" value="" style="endArrow=async;html=1;rounded=0;endFill=1;strokeColor=#009900;" edge="1" parent="1">
          <mxGeometry width="50" height="50" relative="1" as="geometry">
            <mxPoint x="410" y="800" as="sourcePoint" />
            <mxPoint x="410" y="760" as="targetPoint" />
          </mxGeometry>
        </mxCell>
        <mxCell id="uWBmTcXNtp5bhC1Tqfgo-39" value="" style="endArrow=async;html=1;rounded=0;endFill=1;strokeColor=#009900;" edge="1" parent="1">
          <mxGeometry width="50" height="50" relative="1" as="geometry">
            <mxPoint x="730" y="800" as="sourcePoint" />
            <mxPoint x="730" y="760" as="targetPoint" />
          </mxGeometry>
        </mxCell>
        <mxCell id="uWBmTcXNtp5bhC1Tqfgo-46" value="" style="endArrow=async;html=1;rounded=0;endFill=1;strokeColor=#009900;" edge="1" parent="1">
          <mxGeometry width="50" height="50" relative="1" as="geometry">
            <mxPoint x="600" y="600" as="sourcePoint" />
            <mxPoint x="560" y="600" as="targetPoint" />
          </mxGeometry>
        </mxCell>
        <mxCell id="uWBmTcXNtp5bhC1Tqfgo-47" value="" style="endArrow=async;html=1;rounded=0;endFill=1;strokeColor=#009900;" edge="1" parent="1">
          <mxGeometry width="50" height="50" relative="1" as="geometry">
            <mxPoint x="480" y="520" as="sourcePoint" />
            <mxPoint x="510" y="490" as="targetPoint" />
          </mxGeometry>
        </mxCell>
        <mxCell id="uWBmTcXNtp5bhC1Tqfgo-48" value="" style="endArrow=async;html=1;rounded=0;endFill=1;strokeColor=#009900;" edge="1" parent="1">
          <mxGeometry width="50" height="50" relative="1" as="geometry">
            <mxPoint x="660" y="520" as="sourcePoint" />
            <mxPoint x="630" y="490" as="targetPoint" />
          </mxGeometry>
        </mxCell>
        <mxCell id="uWBmTcXNtp5bhC1Tqfgo-49" value="" style="endArrow=async;html=1;rounded=0;endFill=1;strokeColor=#009900;" edge="1" parent="1">
          <mxGeometry width="50" height="50" relative="1" as="geometry">
            <mxPoint x="570" y="370" as="sourcePoint" />
            <mxPoint x="570" y="330" as="targetPoint" />
          </mxGeometry>
        </mxCell>
        <mxCell id="uWBmTcXNtp5bhC1Tqfgo-50" value="" style="endArrow=async;html=1;rounded=0;endFill=1;strokeColor=#009900;" edge="1" parent="1">
          <mxGeometry width="50" height="50" relative="1" as="geometry">
            <mxPoint x="410" y="370" as="sourcePoint" />
            <mxPoint x="410" y="330" as="targetPoint" />
          </mxGeometry>
        </mxCell>
        <mxCell id="uWBmTcXNtp5bhC1Tqfgo-51" value="" style="endArrow=async;html=1;rounded=0;endFill=1;strokeColor=#009900;" edge="1" parent="1">
          <mxGeometry width="50" height="50" relative="1" as="geometry">
            <mxPoint x="730" y="370" as="sourcePoint" />
            <mxPoint x="730" y="330" as="targetPoint" />
          </mxGeometry>
        </mxCell>
        <mxCell id="uWBmTcXNtp5bhC1Tqfgo-52" value="" style="endArrow=async;html=1;rounded=0;endFill=1;strokeColor=#009900;" edge="1" parent="1">
          <mxGeometry width="50" height="50" relative="1" as="geometry">
            <mxPoint x="130" y="370" as="sourcePoint" />
            <mxPoint x="130" y="330" as="targetPoint" />
          </mxGeometry>
        </mxCell>
        <mxCell id="uWBmTcXNtp5bhC1Tqfgo-53" value="" style="endArrow=async;html=1;rounded=0;endFill=1;strokeColor=#009900;" edge="1" parent="1">
          <mxGeometry width="50" height="50" relative="1" as="geometry">
            <mxPoint x="150" y="330" as="sourcePoint" />
            <mxPoint x="150" y="370" as="targetPoint" />
          </mxGeometry>
        </mxCell>
        <mxCell id="uWBmTcXNtp5bhC1Tqfgo-54" value="" style="endArrow=async;html=1;rounded=0;endFill=1;strokeColor=#009900;" edge="1" parent="1">
          <mxGeometry width="50" height="50" relative="1" as="geometry">
            <mxPoint x="1009.5" y="370" as="sourcePoint" />
            <mxPoint x="1009.5" y="330" as="targetPoint" />
          </mxGeometry>
        </mxCell>
        <mxCell id="uWBmTcXNtp5bhC1Tqfgo-55" value="" style="endArrow=async;html=1;rounded=0;endFill=1;strokeColor=#009900;" edge="1" parent="1">
          <mxGeometry width="50" height="50" relative="1" as="geometry">
            <mxPoint x="1029.5" y="330" as="sourcePoint" />
            <mxPoint x="1029.5" y="370" as="targetPoint" />
          </mxGeometry>
        </mxCell>
        <mxCell id="uWBmTcXNtp5bhC1Tqfgo-56" value="" style="endArrow=async;html=1;rounded=0;endFill=1;strokeColor=#009900;" edge="1" parent="1">
          <mxGeometry width="50" height="50" relative="1" as="geometry">
            <mxPoint x="1009.5" y="800" as="sourcePoint" />
            <mxPoint x="1009.5" y="760" as="targetPoint" />
          </mxGeometry>
        </mxCell>
        <mxCell id="uWBmTcXNtp5bhC1Tqfgo-57" value="" style="endArrow=async;html=1;rounded=0;endFill=1;strokeColor=#009900;" edge="1" parent="1">
          <mxGeometry width="50" height="50" relative="1" as="geometry">
            <mxPoint x="1029.5" y="760" as="sourcePoint" />
            <mxPoint x="1029.5" y="800" as="targetPoint" />
          </mxGeometry>
        </mxCell>
        <mxCell id="uWBmTcXNtp5bhC1Tqfgo-58" value="" style="endArrow=async;html=1;rounded=0;endFill=1;strokeColor=#009900;" edge="1" parent="1">
          <mxGeometry width="50" height="50" relative="1" as="geometry">
            <mxPoint x="129.5" y="800" as="sourcePoint" />
            <mxPoint x="129.5" y="760" as="targetPoint" />
          </mxGeometry>
        </mxCell>
        <mxCell id="uWBmTcXNtp5bhC1Tqfgo-59" value="" style="endArrow=async;html=1;rounded=0;endFill=1;strokeColor=#009900;" edge="1" parent="1">
          <mxGeometry width="50" height="50" relative="1" as="geometry">
            <mxPoint x="149.5" y="760" as="sourcePoint" />
            <mxPoint x="149.5" y="800" as="targetPoint" />
          </mxGeometry>
        </mxCell>
        <mxCell id="uWBmTcXNtp5bhC1Tqfgo-61" value="" style="endArrow=classic;dashed=1;html=1;rounded=0;exitX=0.5;exitY=1;exitDx=0;exitDy=0;entryX=1;entryY=0.5;entryDx=0;entryDy=0;startArrow=none;startFill=0;endFill=1;fontSize=14;" edge="1" parent="1" source="uWBmTcXNtp5bhC1Tqfgo-24" target="uWBmTcXNtp5bhC1Tqfgo-60">
          <mxGeometry width="50" height="50" relative="1" as="geometry">
            <mxPoint x="1020" y="620" as="sourcePoint" />
            <mxPoint x="520" y="890" as="targetPoint" />
            <Array as="points">
              <mxPoint x="1020" y="850" />
            </Array>
          </mxGeometry>
        </mxCell>
        <mxCell id="uWBmTcXNtp5bhC1Tqfgo-60" value="Stacquer Schema Database" style="rounded=0;whiteSpace=wrap;html=1;fontSize=14;fillColor=#f5f5f5;strokeColor=#666666;gradientColor=#b3b3b3;" vertex="1" parent="1">
          <mxGeometry x="780" y="820" width="200" height="60" as="geometry" />
        </mxCell>
        <mxCell id="uWBmTcXNtp5bhC1Tqfgo-63" value="" style="endArrow=async;html=1;rounded=0;endFill=1;strokeColor=#009900;" edge="1" parent="1">
          <mxGeometry width="50" height="50" relative="1" as="geometry">
            <mxPoint x="569.5" y="200" as="sourcePoint" />
            <mxPoint x="569.5" y="160" as="targetPoint" />
          </mxGeometry>
        </mxCell>
        <mxCell id="uWBmTcXNtp5bhC1Tqfgo-64" value="" style="endArrow=async;html=1;rounded=0;endFill=1;strokeColor=#009900;" edge="1" parent="1">
          <mxGeometry width="50" height="50" relative="1" as="geometry">
            <mxPoint x="589.5" y="160" as="sourcePoint" />
            <mxPoint x="589.5" y="200" as="targetPoint" />
          </mxGeometry>
        </mxCell>
      </root>
    </mxGraphModel>
  </diagram>
</mxfile>
